<svg xmlns="http://www.w3.org/2000/svg" width="250" height="250" viewBox="0 0 250 250">
  <defs>
    <style>
      .cls-1 {
        fill: #f99;
        stroke-width: 20px;
      }

      .cls-1, .cls-2 {
        stroke: #000;
      }

      .cls-2, .cls-4 {
        stroke-width: 2px;
      }

      .cls-2, .cls-3, .cls-4 {
        fill-rule: evenodd;
      }

      .cls-3 {
        fill: #3cf;
      }

      .cls-4 {
        fill: #fff;
        stroke: #fff;
      }
    </style>
  </defs>
  <circle class="cls-1" cx="125.062" cy="124.656" r="90"/>
  <path class="cls-2" d="M216.466,207.386l7.822,30.712-29.262-12.169L168.6,195.371l21.44-18.543Z"/>
  <path class="cls-3" d="M125.281,100.882c17.745,0,32.131,14.638,32.131,32.695s-14.386,32.695-32.131,32.695S93.15,151.634,93.15,133.577,107.536,100.882,125.281,100.882Z"/>
  <path class="cls-3" d="M110.658,95.612l14.421-29.856L139.7,95.511l0.108,32.62-29.037.1Z"/>
  <path id="Polygon_1" data-name="Polygon 1" class="cls-3" d="M139.677,134.509l-13.32-10.652-12.445,11.662,2.565-16.861c-27.645,33.376-29.657,5.883-4.314-27.765,0.049,0,10.262-17.247,2.212-.072s23.781-.919,23.552-0.938c36.179,61.763,11.307,45.985-2.127,28.017Z"/>
  <path id="Polygon_2" data-name="Polygon 2" class="cls-4" d="M130.777,139.982a4.814,4.814,0,0,0,.065-1.287c-2.887-9.873,7.864-21.383,7.59-28.89-0.52-14.241,6,1.876,11.069,12.026C161.087,145.045,130.609,173.633,130.777,139.982Z"/>
</svg>
